<svg width="126" height="56" viewBox="0 0 126 56" fill="none" xmlns="http://www.w3.org/2000/svg">
<path d="M79.6148 28.6556C79.6148 29.8845 79.9792 31.0858 80.662 32.1076C81.3447 33.1293 82.3151 33.9257 83.4504 34.396C84.5857 34.8662 85.835 34.9893 87.0403 34.7495C88.2455 34.5098 89.3526 33.918 90.2216 33.0491C91.0905 32.1802 91.6823 31.0731 91.922 29.8678C92.1617 28.6625 92.0387 27.4132 91.5684 26.2779C91.0982 25.1426 90.3018 24.1722 89.28 23.4895C88.2583 22.8068 87.057 22.4424 85.8281 22.4424C84.1802 22.4424 82.5999 23.097 81.4347 24.2622C80.2694 25.4274 79.6148 27.0078 79.6148 28.6556ZM67.9572 28.6556C67.9572 25.1211 69.0053 21.6659 70.969 18.7271C72.9326 15.7882 75.7237 13.4976 78.9892 12.145C82.2547 10.7924 85.8479 10.4385 89.3146 11.1281C92.7812 11.8176 95.9655 13.5197 98.4648 16.019C100.964 18.5183 102.666 21.7026 103.356 25.1692C104.045 28.6358 103.691 32.2291 102.339 35.4946C100.986 38.7601 98.6955 41.5511 95.7567 43.5148C92.8178 45.4785 89.3626 46.5266 85.8281 46.5266C83.4812 46.5268 81.1572 46.0647 78.9889 45.1667C76.8206 44.2687 74.8505 42.9523 73.191 41.2928C71.5314 39.6333 70.2151 37.6631 69.3171 35.4948C68.419 33.3265 67.9569 31.0026 67.9572 28.6556Z" fill="#00ABC8"/>
<path d="M123 45.7511H111.778V23.4316H105.144V15.847C109.173 15.6494 112.253 14.1606 112.906 11.3772H123V45.7576" fill="#00ABC8"/>
<path d="M63.4628 45.7511H52.2426V23.4316H45.6082V15.847C49.6372 15.6494 52.716 14.1606 53.3707 11.3772H63.4628V45.7576" fill="#00ABC8"/>
<path fill-rule="evenodd" clip-rule="evenodd" d="M27.4989 45.7805L24.9751 38.6268H14.8095L12.2856 45.7805H3L16.1465 11.4392H23.9172L36.9641 45.7739H27.4956M20.4498 25.9684L19.8931 24.3915L19.3348 25.9684L17.508 31.3149H22.4055L20.4498 25.9684Z" fill="#00ABC8"/>
<path d="M35.9291 32.4054C35.9291 33.6343 36.2935 34.8356 36.9762 35.8573C37.6589 36.8791 38.6293 37.6755 39.7646 38.1458C40.9 38.616 42.1493 38.7391 43.3545 38.4993C44.5598 38.2596 45.6669 37.6678 46.5358 36.7989C47.4048 35.9299 47.9965 34.8228 48.2363 33.6176C48.476 32.4123 48.353 31.163 47.8827 30.0277C47.4124 28.8924 46.616 27.922 45.5943 27.2393C44.5725 26.5565 43.3712 26.1921 42.1424 26.1921C40.4945 26.1921 38.9141 26.8468 37.7489 28.012C36.5837 29.1772 35.9291 30.7576 35.9291 32.4054Z" fill="#00ABC8"/>
</svg>
