<svg width="101" height="56" viewBox="0 0 101 56" fill="none" xmlns="http://www.w3.org/2000/svg">
<path d="M14.695 4.54224H41.6091L46.9187 12.4121L52.3047 4.54224H86.9716C94.628 4.54224 100.833 10.7476 100.833 18.404V38.1656C100.833 45.8219 94.628 52.0273 86.9716 52.0273H14.695C7.03866 52.0273 0.833313 45.822 0.833313 38.1659V18.404C0.833313 10.7476 7.03866 4.54224 14.695 4.54224Z" fill="#EB1928"/>
<path d="M90.713 42.737L88.4226 14.1225H79.8752L74.5705 27.5616L69.2207 14.1225H60.9278L57.8329 42.737H66.2325L67.6577 26.4929L74.5199 42.686L81.9014 26.4419L82.5021 42.737H90.713ZM51.0014 42.8389V14.2244H42.2959V42.8389H51.0014ZM31.7182 28.7784C33.7795 27.0374 35.1389 24.7519 35.017 22.2015C34.8537 18.6736 32.955 15.93 29.631 14.6725C27.7984 13.9548 24.6421 13.6238 21.2517 13.6596C17.3323 13.6951 16.7974 13.6289 11.9666 14.2802V42.7676C14.7357 43.3735 17.0622 43.3783 21.8424 43.4906C30.7152 43.6937 35.6376 40.4463 35.7448 35.1977C35.8009 32.2298 34.0547 30.1582 31.7182 28.7784ZM26.8819 23.204C26.8819 24.8793 25.528 26.2332 23.8527 26.2332H20.483V20.1804H23.8531C25.6447 20.1804 26.8819 21.5343 26.8819 23.204ZM27.7422 34.3425C27.7201 36.16 25.4412 36.8778 23.7308 36.781H20.483V31.7976H23.8531C25.5583 31.6905 27.6403 32.2908 27.7422 34.3425Z" fill="white"/>
</svg>
