<svg width="293" height="40" viewBox="0 0 293 40" fill="none" xmlns="http://www.w3.org/2000/svg">
<g clip-path="url(#clip0_3160_12420)">
<path d="M217.483 20C217.483 8.9574 226.111 0 236.763 0C245.305 0 252.544 5.75684 255.075 13.7374C257.606 5.75684 264.852 0 273.387 0C284.032 0 292.667 8.9574 292.667 20C292.667 31.0426 284.038 40 273.387 40C264.845 40 257.606 34.2432 255.075 26.2626C252.544 34.2432 245.298 40 236.763 40C226.111 40 217.483 31.0495 217.483 20Z" fill="#005BAA"/>
<path d="M248.797 23.7894C248.797 21.7181 248.39 20.2217 247.608 19.3211C246.714 18.2404 245.531 17.8802 242.64 17.7624C241.077 17.7001 239.922 17.6723 239.574 17.6723H234.112C232.262 17.6723 232.115 17.61 231.801 17.5546C230.933 17.3467 230.499 16.8064 230.499 15.9335C230.499 14.8251 231.02 14.4025 232.462 14.2847C233.357 14.2224 235.962 14.1323 237.751 14.1323C241.712 14.1323 242.259 14.3748 242.259 16.1136H247.982C247.982 12.6637 247.348 11.2851 245.411 10.5369C243.935 9.96884 242.406 9.85107 236.77 9.85107C233.043 9.85107 231.42 9.91342 229.544 10.1836C225.964 10.6616 224.715 12.2827 224.715 16.273C224.715 19.425 225.523 20.956 227.547 21.6696C228.529 22.0298 230.205 22.1753 233.01 22.1753H238.326C240.723 22.1753 240.87 22.203 241.217 22.2376C242.406 22.3554 242.98 22.9235 242.98 23.9488C242.98 25.7153 242.259 25.8954 235.354 25.8954C233.878 25.8954 232.235 25.8054 231.681 25.6876C230.813 25.4798 230.612 25.1195 230.552 23.6162H224.802C224.775 24.0665 224.775 24.5722 224.775 24.787C224.775 27.6342 225.704 29.0752 227.867 29.6432C229.283 30.0312 231.247 30.149 235.614 30.149C239.748 30.149 241.391 30.0866 243.708 29.8511C247.408 29.4631 248.797 27.8144 248.797 23.7963" fill="white"/>
<path d="M273.387 14.2848L269.279 22.2584H277.547L273.387 14.2848ZM281.507 29.9966L279.597 26.4289H267.169L265.319 29.9966H258.668L269.506 9.99658H277.367L287.918 29.9966H281.501H281.507Z" fill="white"/>
<path d="M169.52 2.77786C169.613 2.68088 169.7 2.64624 169.787 2.64624C169.927 2.64624 170.021 2.77094 170.021 2.93027C170.021 3.02726 169.974 3.12425 169.894 3.2143C166.428 7.68261 163.91 12.906 163.91 20.1523C163.91 27.3986 166.434 32.5181 169.894 36.9795C169.98 37.0695 170.021 37.1804 170.021 37.2635C170.021 37.4228 169.927 37.5545 169.787 37.5545C169.707 37.5545 169.613 37.5129 169.52 37.4159L154.754 22.6047C154.019 21.9535 153.545 21.1914 153.545 20.0969C153.545 19.0023 154.019 18.2403 154.754 17.596L169.52 2.77786Z" fill="#ED1C24"/>
<path d="M180.866 1.53101C175.083 1.53101 172.825 10.0312 172.825 20.1593C172.825 30.2875 175.083 38.6768 180.866 38.6768C184.332 38.6768 187.29 36.5709 187.304 34.8389C187.304 34.4579 187.164 34.0977 186.856 33.779C185.214 32.1303 184.572 30.4815 184.566 29.0336C184.559 26.2556 186.876 24.1912 189.013 24.1912C191.959 24.1912 193.688 26.5882 193.688 29.6917C193.688 32.636 192.479 35.0883 191.171 37.0489C191.117 37.1251 191.097 37.2151 191.097 37.2982C191.097 37.4507 191.184 37.5754 191.317 37.5754C191.398 37.5754 191.491 37.5338 191.591 37.4229L206.357 22.6117C207.092 21.9605 207.566 21.1985 207.566 20.1039C207.566 19.0094 207.092 18.2473 206.357 17.6031L191.591 2.7849C191.491 2.68099 191.398 2.63942 191.317 2.63942C191.184 2.63942 191.097 2.77105 191.097 2.92345C191.097 3.00659 191.117 3.08972 191.171 3.17285C192.479 5.13336 193.688 7.58574 193.688 10.523C193.688 13.6266 191.952 16.0305 189.013 16.0305C186.883 16.0305 184.559 13.9661 184.566 11.1881C184.572 9.74022 185.214 8.09145 186.856 6.44268C187.164 6.12401 187.304 5.76377 187.304 5.38276C187.297 3.65085 184.339 1.53793 180.866 1.53793" fill="#005BAA"/>
<path d="M3.91897 26.7337C5.89573 28.8397 8.57371 29.9828 11.3585 29.9828C16.3606 29.9758 19.9 26.3527 19.9134 23.2006C19.9134 21.5242 18.8916 20.2287 17.5025 20.2287C16.8147 20.2287 16.1802 20.4712 15.7061 20.9284C15.2319 21.3856 14.9448 22.0645 14.9448 22.882C14.9448 23.8588 15.4256 24.4545 15.7862 24.8771C15.1318 26.0687 13.8295 27.0316 11.7926 27.0385C10.0563 27.0385 8.56035 26.1102 7.48515 24.4684C6.40328 22.8335 5.75549 20.4781 5.75549 17.6932C5.75549 14.9083 6.37656 12.546 7.43173 10.8972C8.48689 9.24844 9.94275 8.32014 11.6791 8.32014C13.7226 8.32014 15.0249 9.30386 15.6794 10.4885C15.3187 10.918 14.8312 11.5138 14.8312 12.4975C14.8312 13.3149 15.1251 13.9869 15.5926 14.4441C16.06 14.9014 16.7011 15.1438 17.389 15.1438C18.7781 15.1438 19.7999 13.8414 19.7999 12.165C19.7798 9.02675 16.247 5.38976 11.245 5.38283C8.4535 5.38283 5.80891 6.63673 3.85886 8.812C1.91549 10.9803 0.666656 14.0701 0.666656 17.7348C0.666656 21.5588 1.9422 24.6277 3.91897 26.7337ZM3.91897 26.7337C5.89573 28.8397 8.57371 29.9828 11.3585 29.9828C16.3606 29.9758 19.9 26.3527 19.9134 23.2006C19.9134 21.5242 18.8916 20.2287 17.5025 20.2287C16.8147 20.2287 16.1802 20.4712 15.7061 20.9284C15.2319 21.3856 14.9448 22.0645 14.9448 22.882C14.9448 23.8588 15.4256 24.4545 15.7862 24.8771C15.1318 26.0687 13.8295 27.0316 11.7926 27.0385C10.0563 27.0385 8.56035 26.1102 7.48515 24.4684C6.40328 22.8335 5.75549 20.4781 5.75549 17.6932C5.75549 14.9083 6.37656 12.546 7.43173 10.8972C8.48689 9.24844 9.94275 8.32014 11.6791 8.32014C13.7226 8.32014 15.0249 9.30386 15.6794 10.4885C15.3187 10.918 14.8312 11.5138 14.8312 12.4975C14.8312 13.3149 15.1251 13.9869 15.5926 14.4441C16.06 14.9014 16.7011 15.1438 17.389 15.1438C18.7781 15.1438 19.7999 13.8414 19.7999 12.165C19.7798 9.02675 16.247 5.38976 11.245 5.38283C8.4535 5.38283 5.80891 6.63673 3.85886 8.812C1.91549 10.9803 0.666656 14.0701 0.666656 17.7348C0.666656 21.5588 1.9422 24.6277 3.91897 26.7337ZM3.91897 26.7337C1.9422 24.6277 0.666656 21.5588 0.666656 17.7348C0.666656 14.0701 1.91549 10.9803 3.85886 8.812C5.80223 6.64366 8.4535 5.38283 11.245 5.38283C16.247 5.38976 19.7865 9.02675 19.7999 12.165C19.7999 13.8484 18.7714 15.1438 17.389 15.1438C16.7078 15.1438 16.0667 14.9014 15.5926 14.4441C15.1184 13.9869 14.8246 13.3149 14.8312 12.4975C14.8312 11.5138 15.3187 10.918 15.6794 10.4885C15.0182 9.30386 13.716 8.32707 11.6791 8.32014C9.94275 8.32014 8.48021 9.25537 7.43173 10.8972C6.38324 12.5391 5.75549 14.9014 5.75549 17.6932C5.75549 20.485 6.40328 22.8335 7.48515 24.4684C8.56035 26.1102 10.0563 27.0316 11.7926 27.0385C13.8295 27.0385 15.1384 26.0687 15.7862 24.8771C15.4256 24.4615 14.9448 23.8588 14.9448 22.882C14.9448 22.0645 15.2319 21.3856 15.7061 20.9284C16.1802 20.4712 16.8214 20.2287 17.5025 20.2287C18.8916 20.2287 19.9134 21.5242 19.9134 23.2006C19.9 26.3527 16.3606 29.9758 11.3585 29.9828C8.57371 29.9828 5.89573 28.8397 3.91897 26.7337ZM76.0708 18.5869C76.3981 18.5799 76.4849 18.5037 76.545 18.3929C76.6118 18.282 76.6251 18.0534 76.6251 17.7763C76.5917 16.1691 75.3896 14.6797 73.5264 14.6797C71.1823 14.6797 70.234 16.6194 70.0871 18.5869H76.0708ZM29.5434 21.3925C27.747 21.4133 26.5382 22.2862 26.5315 24.0181C26.5382 25.653 27.6067 26.7545 29.283 26.7684C30.3649 26.7684 31.4734 26.1449 32.1747 25.2443V22.8473C32.1747 22.5217 31.9676 22.1615 31.5269 21.8775C31.0794 21.5934 30.4116 21.3925 29.5434 21.3925ZM97.9755 20.4157C97.9822 25.0572 99.9322 27.0524 101.836 27.0593C104.019 27.0593 105.595 25.0572 105.609 21.1501C105.609 19.1064 105.175 17.4784 104.467 16.37C103.752 15.2616 102.784 14.6728 101.662 14.6728C99.398 14.6728 97.9889 16.7995 97.9755 20.4088M41.2037 29.2415C40.5024 29.0406 40.0483 28.6388 40.0483 28.0361C40.0483 27.8006 40.1151 27.5512 40.242 27.2741L40.2821 27.184L40.3756 27.1632C40.6494 27.1078 41.0901 26.9693 41.4908 26.6506C41.9049 26.2904 42.0718 25.7916 42.0718 24.3853V17.3191C42.0384 16.1276 41.7713 15.7119 40.8163 15.6842C40.6026 15.6842 40.3488 15.7119 40.0617 15.7673L39.9148 15.795L39.8613 15.6565C39.7545 15.3863 39.7077 15.13 39.7077 14.8875C39.7344 13.4812 41.2237 12.7607 42.2321 12.4351C42.6261 12.3104 42.9934 12.2412 43.334 12.2412C44.7097 12.2412 45.451 13.2387 45.7649 14.5203C46.6665 13.024 48.0889 12.0333 49.4847 12.0264C50.787 12.0264 52.1226 12.9131 52.1226 14.6104C52.1226 15.8158 51.3012 17.0766 49.9188 17.0836C48.9104 17.0836 48.0288 16.3908 47.8352 15.3655C47.0538 15.6288 45.9519 16.6402 45.9385 20.1179V24.3783C45.9385 25.7777 46.1389 26.2765 46.5396 26.6367C46.9136 26.9485 47.7283 27.1009 48.0155 27.1563L48.109 27.1771L48.149 27.2671C48.2759 27.565 48.3561 27.8283 48.3561 28.0846C48.3561 28.6596 47.9487 29.0475 47.2809 29.2415C46.613 29.4493 45.6313 29.5255 44.3024 29.5255C42.9734 29.5255 41.9182 29.4424 41.2037 29.2277M54.8139 29.2277C55.5285 29.4424 56.557 29.5255 57.9127 29.5255C59.2683 29.5255 60.2233 29.4493 60.8978 29.2415C61.5657 29.0475 61.9797 28.6527 61.973 28.0846C61.973 27.8283 61.8996 27.5581 61.7727 27.2671L61.7326 27.1771L61.6391 27.1563C61.3453 27.1009 60.5439 26.9485 60.1632 26.6367C59.7558 26.2765 59.5622 25.7777 59.5622 24.3783V20.1179C59.5689 16.6402 60.6774 15.6357 61.4588 15.3655C61.6458 16.3908 62.534 17.0836 63.5424 17.0836C64.9181 17.0836 65.7396 15.8158 65.7396 14.6104C65.7396 12.9131 64.3972 12.0264 63.1017 12.0264C61.7059 12.0264 60.2768 13.024 59.3819 14.5203C59.0613 13.2318 58.3267 12.2342 56.951 12.2342C56.6037 12.2342 56.2364 12.2966 55.8424 12.4282C54.834 12.7538 53.3447 13.4743 53.318 14.8806C53.318 15.123 53.3648 15.3794 53.4716 15.6495L53.525 15.7881L53.6653 15.7604C53.9524 15.705 54.2062 15.6773 54.4266 15.6773C55.3749 15.705 55.6487 16.1206 55.6821 17.3122V24.3783C55.6821 25.7777 55.5085 26.2765 55.1011 26.6437C54.7004 26.9623 54.2596 27.1009 53.9858 27.1563L53.8923 27.1771L53.8523 27.2671C53.7321 27.5442 53.6653 27.7936 53.6586 28.0292C53.6586 28.6319 54.106 29.0337 54.8073 29.2346M83.6172 29.2346C84.3318 29.4493 85.367 29.5325 86.7293 29.5325C88.0917 29.5325 89.2003 29.4493 89.9683 29.2207C90.7229 29.0129 91.2238 28.6111 91.2238 27.9738C91.2238 27.7521 91.1637 27.5235 91.0568 27.2741L91.0168 27.184L90.9299 27.1702C90.6294 27.1147 89.6076 26.9485 89.247 26.6506C88.8396 26.2904 88.6193 25.7846 88.6126 24.3922V15.1785C89.1201 15.1854 89.8013 15.2408 90.4825 15.2408C90.7763 15.2408 91.1036 15.2408 91.4108 15.2062C92.2188 15.13 92.8533 14.4303 92.8533 13.502C92.8533 13.218 92.7932 12.9201 92.673 12.6083L92.6262 12.4975H88.4991V9.82343C88.4991 8.86742 88.6126 8.02225 88.9465 7.44726C89.2804 6.87227 89.8147 6.52589 90.783 6.51896C91.3841 6.51896 92.0118 6.69215 92.3324 6.99004C92.1253 7.32256 91.9784 7.77286 91.9784 8.21623C91.9851 9.42163 92.9935 10.3707 94.0954 10.3776C95.558 10.3776 96.2659 9.07525 96.2659 8.02918C96.2525 5.61145 93.6413 4.11508 90.5226 4.10815C88.0449 4.10815 86.4154 5.14037 85.4805 6.65059C84.8728 7.59967 84.4253 9.0129 84.4253 11.493V12.5183H83.3768C82.5354 12.5183 81.8609 13.121 81.8609 14.0285C81.8609 14.3056 81.921 14.5966 82.0412 14.9014L82.0879 15.0122L84.4921 15.1023V24.3853C84.4921 25.7846 84.3251 26.2834 83.9111 26.6506C83.5104 26.9693 83.0696 27.1078 82.7891 27.1632L82.7023 27.184L82.6623 27.2671C82.5421 27.5373 82.4753 27.7936 82.4753 28.0223C82.4753 28.625 82.9294 29.0268 83.6373 29.2277M132.742 29.2277C132.041 29.0268 131.587 28.625 131.587 28.0223C131.587 27.7867 131.654 27.5373 131.781 27.2602L131.814 27.1771L131.901 27.1563C132.168 27.1009 132.622 26.9623 133.01 26.6367C133.43 26.2765 133.591 25.7846 133.591 24.3783V17.3122C133.557 16.1206 133.297 15.705 132.342 15.6773C132.128 15.6773 131.874 15.705 131.587 15.7604L131.44 15.7881L131.387 15.6495C131.287 15.3794 131.24 15.13 131.24 14.8944C131.267 13.4812 132.756 12.7538 133.758 12.4282C134.165 12.3035 134.519 12.2342 134.886 12.2342C136.242 12.2342 136.983 13.2457 137.297 14.555C138.185 13.0378 139.608 12.0333 141.01 12.0264C142.326 12.0264 143.648 12.9201 143.655 14.6104C143.655 15.8158 142.833 17.0697 141.471 17.0836C140.456 17.0836 139.568 16.3908 139.367 15.3655C138.593 15.6288 137.504 16.6333 137.491 20.1179V24.3783C137.491 25.7777 137.684 26.2765 138.065 26.6367C138.459 26.9485 139.267 27.1009 139.548 27.1563L139.634 27.1771L139.675 27.2671C139.808 27.565 139.888 27.8352 139.888 28.0915C139.888 28.6665 139.481 29.0545 138.82 29.2415C138.152 29.4493 137.17 29.5255 135.848 29.5255C134.526 29.5255 133.464 29.4424 132.749 29.2277M101.682 29.7542C99.3913 29.7542 97.3143 28.8605 95.7984 27.3018C94.2891 25.75 93.3541 23.5193 93.3541 20.873C93.3608 15.6288 97.3344 12.068 101.822 12.0541C104.24 12.0541 106.33 12.9478 107.813 14.4996C109.302 16.0513 110.17 18.2613 110.17 20.873C110.17 23.4847 109.262 25.7154 107.739 27.281C106.216 28.8466 104.093 29.7472 101.682 29.7472V29.7542ZM65.7462 21.2124C65.7462 18.5591 66.5877 16.2661 68.0636 14.645C69.5328 13.0171 71.6365 12.061 74.1274 12.061C76.3981 12.061 78.0743 12.9339 79.1829 14.1809C80.2848 15.4279 80.8124 17.0489 80.8124 18.5384C80.8124 19.4182 80.6321 20.2425 80.2648 20.9353L80.218 21.0323H70.0738C70.2407 24.0943 72.124 26.2349 75.3896 26.2419C77.3998 26.2419 78.9492 25.0988 79.4701 24.413L79.5769 24.2675L79.7171 24.3783C80.011 24.5931 80.3249 24.9949 80.3182 25.7569C80.3048 27.5235 78.3147 29.7819 73.8937 29.7888C69.4059 29.7819 65.7596 26.0687 65.7462 21.2193M124.234 29.0129C123.934 28.5834 123.78 28.0361 123.633 27.4126C123.466 27.6066 123.273 27.8144 122.979 28.1054C121.89 29.1584 120.475 29.8026 118.872 29.8026C117.129 29.8026 115.639 29.1099 114.691 27.9461C113.235 26.1449 113.249 23.8588 113.249 20.6166V17.4854C113.215 16.2176 112.835 15.7881 111.699 15.7535C111.552 15.7535 111.392 15.7604 111.218 15.7812L111.085 15.795L111.031 15.6634C110.945 15.4348 110.905 15.2062 110.905 14.9914C110.938 13.4812 112.788 12.6707 113.87 12.4351C114.25 12.3728 114.604 12.3104 114.952 12.3104C115.833 12.3104 116.488 12.6014 116.895 13.1348C117.309 13.6613 117.469 14.3887 117.469 15.2408L117.436 20.582C117.436 22.5564 117.569 24.032 117.99 24.981C118.418 25.9232 119.059 26.3666 120.247 26.3735C121.536 26.3735 122.318 25.7916 122.812 24.9395C123.306 24.0804 123.486 22.9166 123.486 21.8082V17.4854C123.46 16.2176 123.072 15.7881 121.944 15.7535C121.797 15.7535 121.637 15.7604 121.463 15.7812L121.323 15.795L121.269 15.6634C121.182 15.4348 121.136 15.2062 121.136 14.9914C121.169 13.4812 123.012 12.6707 124.107 12.4351C124.481 12.3728 124.842 12.3104 125.189 12.3104C126.071 12.3104 126.725 12.6014 127.139 13.1348C127.553 13.6613 127.714 14.3887 127.714 15.2339C127.714 15.8504 127.66 16.9381 127.66 21.4826C127.66 23.4085 127.627 24.4268 127.627 24.7386C127.654 26.0479 128.081 26.6367 129.25 26.6644C129.377 26.6644 129.504 26.6575 129.644 26.6367L129.777 26.6229L129.831 26.7545C129.918 26.9831 129.964 27.2048 129.964 27.4126C129.918 28.8882 128.068 29.4771 126.999 29.7057C126.625 29.7611 126.285 29.8234 125.984 29.8234H125.964C125.136 29.8234 124.575 29.5186 124.228 29.0129M22.1105 24.2952C22.1105 22.6187 22.8251 21.254 24.0272 20.3326C25.2293 19.4112 26.9055 18.9263 28.8489 18.9263C30.0643 18.9263 31.3132 19.1549 32.1813 19.5498V17.6655C32.1546 15.7604 31.4601 14.6866 29.4032 14.6589C29.0158 14.6589 28.161 14.7628 27.4531 15.0122C27.5199 15.2893 27.56 15.5664 27.56 15.8366C27.56 16.4739 27.3663 17.0559 26.9923 17.4854C26.625 17.9149 26.0774 18.1781 25.4163 18.1781C24.2342 18.1781 23.3393 17.1736 23.3326 15.9267C23.3594 13.6198 26.0574 12.061 29.6703 12.061C32.5286 12.061 34.3251 12.7607 35.2867 14.0423C36.1616 15.1923 36.2016 16.8688 36.2016 19.238V25.4036C36.2217 26.6021 36.8695 26.9277 38.3053 27.1494L38.4723 27.1702L38.4589 27.3433C38.3788 28.9713 37.2234 29.6433 35.9813 29.7472C35.8744 29.7542 35.7676 29.7611 35.6607 29.7611C34.4386 29.7611 33.2632 29.1445 32.7022 27.8768C31.9409 28.5488 30.2046 29.7957 27.9674 29.8026C24.6416 29.8026 22.1172 27.468 22.1105 24.2813" fill="#005BAA"/>
</g>
<defs>
<clipPath id="clip0_3160_12420">
<rect width="292" height="40" fill="white" transform="translate(0.666656)"/>
</clipPath>
</defs>
</svg>
