<svg width="84" height="55" viewBox="0 0 84 55" fill="none" xmlns="http://www.w3.org/2000/svg">
<path d="M13.2399 42.9279L15.9107 43.6236L8.88446 55.0001L6.21367 53.8543L9.82951 44.3602C7.67987 45.1941 5.3976 45.6376 3.09089 45.6697L2.06366 39.9406C5.05698 39.9051 7.98374 39.0561 10.528 37.4852C10.528 37.4852 12.4181 35.5209 10.98 34.2114C9.78233 33.0541 8.39206 32.1125 6.87109 31.4287C4.2003 29.9145 0.666626 27.3773 0.666626 23.9807C0.824608 22.6935 1.27723 21.4596 1.98962 20.374C2.70201 19.2885 3.65513 18.3803 4.77554 17.7196C8.54558 15.3658 12.7276 13.7414 17.1023 12.9316L17.5954 18.6608C17.5954 18.6608 9.08991 19.2746 9.04882 22.3848C9.04882 22.3848 9.04882 24.0626 11.0622 25.3312C13.0756 26.5998 18.2939 28.5641 19.28 31.1422C19.28 31.1422 22.1974 37.3624 13.0345 42.8051" fill="#0551A0"/>
<path d="M48.4123 16.3282L56.589 5.40186L47.3851 12.3178L48.4123 16.3282Z" fill="#EC2027"/>
<path d="M34.2776 13.218L20.677 0L25.731 8.83928L34.2776 13.218Z" fill="#EC2027"/>
<path d="M17.9652 42.9687L23.43 34.4977L15.6642 24.1852L25.1558 20.6249L18.335 5.11523L35.6746 15.837L45.988 10.1896L47.6316 20.2157L65.0945 19.9292L51.0009 32.3288L53.6717 46.0379L40.1533 42.764L35.3048 52.9129L28.6073 40.2268L17.9652 42.9687Z" fill="#EC2027"/>
<path d="M14.6369 51.0712L27.58 41.7L29.4701 44.8919L14.6369 51.0712Z" fill="#EC2027"/>
<path d="M40.9749 44.1555L47.2616 45.5878L51.0829 54.0588L40.9749 44.1555Z" fill="#EC2027"/>
<path d="M36.291 17.9241C37.8932 17.6696 39.5326 17.7818 41.0848 18.2524C42.6369 18.7229 44.0611 19.5394 45.2491 20.6399C46.4372 21.7403 47.358 23.0958 47.9417 24.6035C48.5254 26.1112 48.7566 27.7315 48.6178 29.3415C48.521 30.8904 48.1105 32.4038 47.4109 33.7905C46.7113 35.1773 45.7371 36.4086 44.547 37.4104C43.3568 38.4121 41.9754 39.1636 40.4859 39.6195C38.9965 40.0754 37.4297 40.2264 35.8801 40.0632C35.8801 40.0632 25.0737 40.0632 25.0737 30.0781C25.0737 30.0781 25.0737 18.3742 36.4143 17.8013" fill="white"/>
<path d="M36.5787 23.5305C36.5787 23.5305 41.3039 23.2441 41.0985 29.1779C41.0985 29.1779 40.6465 34.2932 36.3322 34.1704C35.7226 34.1095 35.1314 33.928 34.5931 33.6366C34.0549 33.3451 33.5805 32.9496 33.1978 32.4732C32.8151 31.9967 32.5318 31.449 32.3644 30.862C32.1971 30.2751 32.1491 29.6608 32.2232 29.0551C32.2232 29.0551 32.2232 23.8579 36.702 23.5305" fill="#EC2027"/>
<path d="M57.7804 46.1607L65.4641 44.6875L62.4646 29.4234L79.0236 42.3958L83.6666 36.2984L70.2305 26.8452L78.5716 14.6912L72.4493 10.8445L62.1359 27.6228L59.3829 13.0952L51.6171 14.5275L57.7804 46.1607Z" fill="#0551A0"/>
</svg>
