<svg xmlns="http://www.w3.org/2000/svg" xmlns:xlink="http://www.w3.org/1999/xlink" xmlns:inkscape="http://www.inkscape.org/namespaces/inkscape" version="1.1" width="517.048" height="283.465" viewBox="0 0 517.048 283.465">
<defs>
<clipPath id="clip_0">
<path transform="matrix(1,0,0,-1,0,283.465)" d="M0 283.465H517.048V0H0Z"/>
</clipPath>
</defs>
<g inkscape:groupmode="layer" inkscape:label="Layer 1">
<g clip-path="url(#clip_0)">
<path transform="matrix(1,0,0,-1,485.4954,102.02429)" d="M0 0C0 11.424-8.458 20.041-19.674 20.041H-53.439L-53.44-19.857H-19.674C-8.275-19.857 0-11.506 0 0M25.064 0C25.064-24.775 5.987-43.459-19.308-43.458H-53.44V-70.248C-53.44-77.91-59.674-84.144-67.336-84.144H-78.139L-78.138 43.642H-19.307C5.988 43.642 25.065 24.88 25.064 0M-112.204-20.178C-112.204 3.245-129.809 21.003-153.079 21.003-176.348 21.003-193.953 3.245-193.953-20.178-193.954-43.601-176.349-61.359-153.08-61.359-129.81-61.359-112.204-43.601-112.204-20.178M-219.673-20.178C-219.673 3.245-237.278 21.003-260.548 21.003-283.817 21.003-301.423 3.245-301.423-20.178-301.423-43.6-283.818-61.358-260.548-61.358-237.279-61.359-219.673-43.601-219.673-20.178M-88.199-20.178C-88.199-56.662-116.057-84.339-153.08-84.339-175.884-84.339-195.293-73.72-206.79-56.988-218.25-73.72-237.634-84.339-260.549-84.339-297.392-84.339-325.428-56.661-325.428-20.178-325.427 16.306-297.39 43.983-260.547 43.983-237.632 43.983-218.249 33.364-206.789 16.632-195.292 33.364-175.882 43.983-153.078 43.983-116.055 43.983-88.198 16.306-88.199-20.178M-309.136-84.209H-337.851C-344.36-84.209-350.504-81.202-354.499-76.061L-397.916-20.177-354.497 35.706C-350.503 40.847-344.359 43.854-337.849 43.854H-309.135C-313.745 43.854-321.657 34.939-321.657 34.939L-366.27-20.177-321.658-75.294C-321.658-75.294-313.746-84.209-309.136-84.209" fill="#0c6937"/>
<path transform="matrix(1,0,0,-1,72.3641,58.169694)" d="M0 0H-15.116V-50.752L-56.045-50.751C-61.475-50.751-65.878-55.155-65.876-60.586L-65.871-77.309H-15.116L-15.117-128.064H-.001C6.315-128.064 11.437-122.943 11.437-116.625L11.438-11.439C11.438-5.121 6.317 0 0 0" fill="#39af49"/>
<path transform="matrix(1,0,0,-1,69.6539,29.985489)" d="M0 0H-4.466V-11.977H-7.896L-7.895 0H-12.365V3.129H0Z" fill="#39af49"/>
<path transform="matrix(1,0,0,-1,82.149,35.747896)" d="M0 0H4.101L2.053 5.158ZM5.333-3.129H-1.251L-2.459-6.215H-5.996L.368 8.912H3.798L10.143-6.215H6.56Z" fill="#39af49"/>
<path transform="matrix(1,0,0,-1,108.0795,34.107896)" d="M0 0C1.703 0 2.59 .756 2.59 2.093 2.59 3.409 1.703 4.164 0 4.164H-3.196V0ZM-3.196-7.855H-6.649L-6.648 7.251H.303C4.186 7.251 6.15 5.072 6.15 2.093 6.15-.238 4.853-2.093 2.375-2.783L6.257-7.855H2.394L-1.251-3.042H-3.196Z" fill="#39af49"/>
<path transform="matrix(1,0,0,-1,127.5262,41.962999)" d="M0 0H-3.453V15.106H0Z" fill="#39af49"/>
<path transform="matrix(1,0,0,-1,141.2684,32.575395)" d="M0 0V-9.388H-3.434V5.739H-.046L5.072-3.152 10.186 5.739H13.531V-9.388H10.078V-.044L6.322-6.756H3.775Z" fill="#39af49"/>
<path transform="matrix(1,0,0,-1,184.8194,33.546098)" d="M0 0 6.541-8.417H2.375L-2.264-2.417-4.143-4.446V-8.417H-7.596V6.689H-4.143V0L2.053 6.689H6.238Z" fill="#39af49"/>
<path transform="matrix(1,0,0,-1,206.8827,34.1082)" d="M0 0C1.703 0 2.59 .756 2.59 2.093 2.59 3.409 1.703 4.164 0 4.164H-3.196V0ZM-3.196-7.855H-6.649L-6.648 7.251H.303C4.186 7.251 6.15 5.072 6.15 2.093 6.15-.238 4.853-2.093 2.375-2.783L6.257-7.855H2.394L-1.251-3.042H-3.196Z" fill="#39af49"/>
<path transform="matrix(1,0,0,-1,222.8575,41.963396)" d="M0 0V15.106H11.352V11.998H3.453V9.15H10.769V6.042H3.453V3.107H11.44V0Z" fill="#39af49"/>
<path transform="matrix(1,0,0,-1,249.9887,38.834794)" d="M0 0C2.632 0 4.423 1.857 4.423 4.425 4.423 6.992 2.632 8.849 0 8.849H-2.267V0ZM.173-3.129H-5.72V11.977H.173C4.684 11.977 7.965 8.632 7.964 4.425 7.964 .217 4.684-3.129 .173-3.129" fill="#39af49"/>
<path transform="matrix(1,0,0,-1,271.4457,41.9635)" d="M0 0H-3.453V15.106H0ZM-1.726 19.854C-.648 19.854 .131 19.033 .131 17.976 .131 16.919-.648 16.098-1.726 16.098-2.804 16.098-3.583 16.919-3.583 17.976-3.583 19.033-2.804 19.854-1.726 19.854" fill="#39af49"/>
<path transform="matrix(1,0,0,-1,71.4837,261.3554)" d="M0 0 3.134 8.339C-6.798 9.401-13.974 17.424-13.974 27.406-13.974 38.134-5.634 46.575 5.471 46.575 14.596 46.575 21.874 41.104 23.313 33.194H17.464C16.301 37.766 12.055 41.267 5.522 41.267-2.45 41.267-8.186 35.48-8.186 27.406-8.186 19.332-2.45 13.545 5.522 13.545 12.055 13.545 16.301 17.046 17.526 21.67H23.364C22.037 14.392 15.872 9.248 7.859 8.39L5.41 0Z" fill="#0c6937"/>
<path transform="matrix(1,0,0,-1,0,283.465)" d="M106.341 30.929H101.237V54.293H106.341ZM103.789 65.184C105.698 65.184 107.025 63.857 107.025 61.948 107.025 60.09 105.698 58.753 103.789 58.753 101.87 58.753 100.605 60.09 100.605 61.948 100.605 63.857 101.87 65.184 103.789 65.184" fill="#0c6937"/>
<path transform="matrix(1,0,0,-1,115.7215,229.1723)" d="M0 0V3.828C0 10.789 2.919 14.239 8.819 14.239 10.36 14.239 12.055 13.974 12.902 13.708V9.35C11.953 9.513 10.891 9.564 9.829 9.564 6.318 9.564 5.093 7.543 5.093 3.195V0H12.371V-4.512H5.093V-23.364H0V-4.512H-4.246V0Z" fill="#0c6937"/>
<path transform="matrix(1,0,0,-1,135.0946,229.1723)" d="M0 0V7.176H4.93V0H13.116V-4.512H4.93V-14.811C4.93-18.21 6.42-19.118 9.401-19.118 10.779-19.118 12.208-18.853 13.269-18.536V-22.997C12.157-23.415 10.197-23.793 8.39-23.793 3.185-23.793-.163-21.772-.163-15.607V-4.512H-4.471V0Z" fill="#0c6937"/>
<path transform="matrix(1,0,0,-1,158.9793,261.1921)" d="M0 0 3.083 8.339C-2.766 9.288-6.961 14.229-6.961 20.343-6.961 27.192-1.705 32.551 5.257 32.551 12.269 32.551 16.199 28.09 16.73 23.578H11.575C10.993 26.018 8.972 27.937 5.359 27.937 1.225 27.937-1.705 24.854-1.705 20.343-1.705 15.882 1.225 12.749 5.359 12.749 9.023 12.749 10.993 14.708 11.575 17.158H16.73C16.301 13.116 13.167 9.186 7.594 8.339L5.155 0Z" fill="#0c6937"/>
<path transform="matrix(1,0,0,-1,0,283.465)" d="M186.304 30.929H181.2V54.293H186.304ZM183.752 65.184C185.661 65.184 186.988 63.857 186.988 61.948 186.988 60.09 185.661 58.753 183.752 58.753 181.833 58.753 180.567 60.09 180.567 61.948 180.567 63.857 181.833 65.184 183.752 65.184" fill="#0c6937"/>
<path transform="matrix(1,0,0,-1,212.2504,224.9159)" d="M0 0V-27.621H-5.522V9.605H-.051L14.443-14.77 28.947 9.605H34.357V-27.621H28.733V-.061L16.464-20.823H12.32Z" fill="#0c6937"/>
<path transform="matrix(1,0,0,-1,265.5827,248.5557)" d="M0 0C3.93 0 7.063 3.185 7.063 7.706 7.063 12.218 3.93 15.403 0 15.403-4.032 15.403-6.961 12.218-6.961 7.706-6.961 3.185-4.032 0 0 0M-.694 19.914C2.654 19.914 5.369 18.485 7.227 16.25V19.383H12.167V-3.981H7.227V-.847C5.369-3.083 2.654-4.512-.694-4.512-7.38-4.512-12.218 .847-12.218 7.706-12.218 14.555-7.329 19.914-.694 19.914" fill="#0c6937"/>
<path transform="matrix(1,0,0,-1,299.3377,233.8982)" d="M0 0C-.48 .112-1.439 .163-2.072 .163-6.91 .163-9.299-3.021-9.299-7.696V-18.638H-14.392V4.726H-9.452V.745C-8.074 3.297-5.471 4.94-1.807 4.94-1.062 4.94-.48 4.889 0 4.787Z" fill="#0c6937"/>
<path transform="matrix(1,0,0,-1,315.8325,238.9406)" d="M0 0 10.728-13.596H4.675L-3.45-3.236-6.533-6.053V-13.596H-11.626V23.579H-6.533V-.102L3.991 9.768H10.575Z" fill="#0c6937"/>
<path transform="matrix(1,0,0,-1,333.1744,238.9406)" d="M0 0H13.116C12.585 3.879 10.044 6.002 6.696 6.002 3.134 6.002 .643 3.766 0 0M-5.206-1.909C-5.206 5.093-.214 10.299 6.584 10.299 13.494 10.299 18.22 4.991 18.22-1.705 18.22-2.388 18.22-3.032 18.118-3.715H-.051C.582-7.594 3.348-9.829 6.961-9.829 10.044-9.829 12.269-8.503 12.8-6.43H17.689C16.781-10.728 12.749-14.127 6.747-14.127-.153-14.127-5.206-8.972-5.206-1.909" fill="#0c6937"/>
<path transform="matrix(1,0,0,-1,358.9781,229.1723)" d="M0 0V7.176H4.93V0H13.116V-4.512H4.93V-14.811C4.93-18.21 6.42-19.118 9.401-19.118 10.779-19.118 12.208-18.853 13.269-18.536V-22.997C12.157-23.415 10.197-23.793 8.39-23.793 3.185-23.793-.163-21.772-.163-15.607V-4.512H-4.471V0Z" fill="#0c6937"/>
<path transform="matrix(1,0,0,-1,0,283.465)" d="M382.965 30.929H377.861V54.293H382.965ZM380.413 65.184C382.322 65.184 383.649 63.857 383.649 61.948 383.649 60.09 382.322 58.753 380.413 58.753 378.494 58.753 377.228 60.09 377.228 61.948 377.228 63.857 378.494 65.184 380.413 65.184" fill="#0c6937"/>
</g>
</g>
</svg>
